HIERARCHY
ROOT Hips
{
	OFFSET 0.00000 0.00000 0.00000
	CHANNELS 6 Xposition Yposition Zposition Zrotation Yrotation Xrotation 
	JOINT LHipJoint
	{
		OFFSET 0 0 0
		CHANNELS 3 Zrotation Yrotation Xrotation
		JOINT LeftUpLeg
		{
			OFFSET 1.61328 -1.70571 0.84375
			CHANNELS 3 Zrotation Yrotation Xrotation
			JOINT LeftLeg
			{
				OFFSET 2.32400 -6.38513 0.00000
				CHANNELS 3 Zrotation Yrotation Xrotation
				JOINT LeftFoot
				{
					OFFSET 2.58843 -7.11166 0.00000
					CHANNELS 3 Zrotation Yrotation Xrotation
					JOINT LeftToeBase
					{
						OFFSET 0.17200 -0.47257 2.47970
						CHANNELS 3 Zrotation Yrotation Xrotation
						End Site
						{
							OFFSET 0.00000 -0.00000 1.26912
						}
					}
				}
			}
		}
	}
	JOINT RHipJoint
	{
		OFFSET 0 0 0
		CHANNELS 3 Zrotation Yrotation Xrotation
		JOINT RightUpLeg
		{
			OFFSET -1.49930 -1.70570 0.84375
			CHANNELS 3 Zrotation Yrotation Xrotation
			JOINT RightLeg
			{
				OFFSET -2.30458 -6.33178 0.00000
				CHANNELS 3 Zrotation Yrotation Xrotation
				JOINT RightFoot
				{
					OFFSET -2.62261 -7.20556 0.00000
					CHANNELS 3 Zrotation Yrotation Xrotation
					JOINT RightToeBase
					{
						OFFSET -0.18709 -0.51403 2.51340
						CHANNELS 3 Zrotation Yrotation Xrotation
						End Site
						{
							OFFSET -0.00000 -0.00000 1.28858
						}
					}
				}
			}
		}
	}
	JOINT LowerBack
	{
		OFFSET 0 0 0
		CHANNELS 3 Zrotation Yrotation Xrotation
		JOINT Spine
		{
			OFFSET -0.03798 2.19274 -0.19881
			CHANNELS 3 Zrotation Yrotation Xrotation
			JOINT Spine1
			{
				OFFSET -0.00024 2.19460 0.05248
				CHANNELS 3 Zrotation Yrotation Xrotation
				JOINT Neck
				{
					OFFSET 0 0 0
					CHANNELS 3 Zrotation Yrotation Xrotation
					JOINT Neck1
					{
						OFFSET -0.00746 1.82323 0.17286
						CHANNELS 3 Zrotation Yrotation Xrotation
						JOINT Head
						{
							OFFSET 0.11826 1.82121 -0.27841
							CHANNELS 3 Zrotation Yrotation Xrotation
							End Site
							{
								OFFSET 0.03496 1.85543 -0.11495
							}
						}
					}
				}
				JOINT LeftShoulder
				{
					OFFSET 0 0 0
					CHANNELS 3 Zrotation Yrotation Xrotation
					JOINT LeftArm
					{
						OFFSET 3.71926 0.78840 0.25473
						CHANNELS 3 Zrotation Yrotation Xrotation
						JOINT LeftForeArm
						{
							OFFSET 5.37587 -0.00000 0.00000
							CHANNELS 3 Zrotation Yrotation Xrotation
							JOINT LeftHand
							{
								OFFSET 3.35977 -0.00000 0.00000
								CHANNELS 3 Zrotation Yrotation Xrotation
								JOINT LeftFingerBase
								{
									OFFSET 0 0 0
									CHANNELS 3 Zrotation Yrotation Xrotation
									JOINT LeftHandIndex1
									{
										OFFSET 0.56186 -0.00000 0.00000
										CHANNELS 3 Zrotation Yrotation Xrotation
										End Site
										{
											OFFSET 0.45299 -0.00000 0.00000
										}
									}
								}
								JOINT LThumb
								{
									OFFSET 0 0 0
									CHANNELS 3 Zrotation Yrotation Xrotation
									End Site
									{
										OFFSET 0.45990 -0.00000 0.45990
									}
								}
							}
						}
					}
				}
				JOINT RightShoulder
				{
					OFFSET 0 0 0
					CHANNELS 3 Zrotation Yrotation Xrotation
					JOINT RightArm
					{
						OFFSET -3.65136 0.56074 0.01624
						CHANNELS 3 Zrotation Yrotation Xrotation
						JOINT RightForeArm
						{
							OFFSET -5.22819 -0.00000 0.00000
							CHANNELS 3 Zrotation Yrotation Xrotation
							JOINT RightHand
							{
								OFFSET -3.40764 -0.00000 0.00000
								CHANNELS 3 Zrotation Yrotation Xrotation
								JOINT RightFingerBase
								{
									OFFSET 0 0 0
									CHANNELS 3 Zrotation Yrotation Xrotation
									JOINT RightHandIndex1
									{
										OFFSET -0.58325 -0.00000 0.00000
										CHANNELS 3 Zrotation Yrotation Xrotation
										End Site
										{
											OFFSET -0.47024 -0.00000 0.00000
										}
									}
								}
								JOINT RThumb
								{
									OFFSET 0 0 0
									CHANNELS 3 Zrotation Yrotation Xrotation
									End Site
									{
										OFFSET -0.47742 -0.00000 0.47742
									}
								}
							}
						}
					}
				}
			}
		}
	}
}
MOTION
Frames: 5
Frame Time: .0083333
44.6975 16.9104 -6.6009 -489.5380 85.1426 2029.6400 0.0000 0.0000 0.0000 -13.2811 -5.2582 -11.1291 1.1122 6.6999 18.8293 -0.0943 -5.8165 -0.0741 0.0161 -0.8205 -2.2551 0.0000 0.0000 0.0000 22.2036 -2.8979 4.4287 -2.8330 -10.4196 30.3466 -0.2368 6.5623 -9.1656 -0.6142 -5.0158 13.9537 5.9405 2.8991 -1.7221 2.0068 3.7681 -0.0999 -1.1465 1.9224 1.1075 5.1923 8.0938 -0.6045 6.1985 10.6099 4.5541 1.2290 5.5410 1.4451 0.0000 0.0000 0.0000 -78.6096 0.6129 26.6649 21.1166 -31.9642 -6.1116 -0.0000 0.0000 -11.4908 19.1467 17.4094 5.9306 -7.1250 0.0000 -0.0000 -8.5264 48.1560 -0.6684 0.0000 0.0000 0.0000 77.2608 -4.9814 28.3660 -32.5692 42.9963 -13.1274 0.0000 0.0000 4.0295 -25.8754 5.0354 -2.4378 7.1250 -0.0000 -0.0000 0.5975 -24.3867 0.2975
44.7771 16.9202 -6.6412 -486.9700 85.3523 2032.2100 0.0000 0.0000 0.0000 -13.4732 -5.0013 -10.6744 1.0852 6.6208 18.5967 -0.0873 -5.7110 -0.3570 0.0182 -0.8702 -2.3918 0.0000 0.0000 0.0000 21.9410 -2.7225 3.9507 -3.0431 -10.7645 31.4897 -0.1991 6.2410 -8.4669 -0.6681 -5.2273 14.5581 5.8038 2.9134 -1.7670 1.9732 3.7876 -0.1456 -1.1041 1.9297 1.0803 5.1987 8.1472 -0.6219 6.2345 10.6769 4.5936 1.2425 5.5771 1.4587 -0.0000 0.0000 0.0000 -78.6138 0.5365 26.9953 21.2128 -32.0758 -6.1625 -0.0000 0.0000 -11.5730 19.1954 17.3246 5.9189 -7.1250 0.0000 -0.0000 -8.4567 48.0756 -0.6460 -0.0000 0.0000 0.0000 77.3035 -5.2243 28.2523 -32.5857 43.0092 -13.1386 0.0000 0.0000 4.0737 -25.8906 5.0502 -2.4465 7.1250 -0.0000 -0.0000 0.5866 -24.3696 0.2923
44.8544 16.9296 -6.6808 -484.1590 85.5581 2035.0300 0.0000 0.0000 0.0000 -13.6638 -4.6584 -10.2464 1.0548 6.5303 18.3311 -0.0831 -5.6770 -0.5726 0.0190 -0.8903 -2.4469 0.0000 0.0000 0.0000 21.6637 -2.5554 3.3964 -3.2771 -11.1306 32.7216 -0.1640 5.8580 -7.7418 -0.7236 -5.4356 15.1552 5.6617 2.9247 -1.7974 1.9370 3.8040 -0.1849 -1.0619 1.9355 1.0511 5.2035 8.2022 -0.6453 6.2634 10.7469 4.6087 1.2535 5.6136 1.4658 -0.0000 -0.0000 0.0000 -78.6007 0.4720 27.3584 21.3579 -32.2437 -6.2398 -0.0000 0.0000 -11.6676 19.2701 17.2498 5.9189 -7.1250 0.0000 -0.0000 -8.3655 48.0092 -0.6252 -0.0000 -0.0000 0.0000 77.3439 -5.4300 28.1399 -32.5878 43.0108 -13.1401 0.0000 0.0000 4.1220 -25.8978 5.0529 -2.4486 7.1250 -0.0000 -0.0000 0.5813 -24.3662 0.2897
44.9291 16.9383 -6.7193 -481.2050 85.7643 2037.9900 0.0000 0.0000 0.0000 -13.8629 -4.2179 -9.8493 1.0206 6.4269 18.0283 -0.0825 -5.7235 -0.7064 0.0189 -0.8874 -2.4390 0.0000 0.0000 0.0000 21.3624 -2.3975 2.7661 -3.5375 -11.5182 34.0481 -0.1321 5.4205 -6.9986 -0.7783 -5.6326 15.7221 5.5010 2.9320 -1.8046 1.8944 3.8170 -0.2211 -1.0174 1.9394 1.0112 5.1997 8.2576 -0.6837 6.2994 10.8170 4.6131 1.2684 5.6499 1.4711 0.0000 0.0000 0.0000 -78.5688 0.4203 27.7450 21.5458 -32.4599 -6.3403 -0.0000 0.0000 -11.7702 19.3675 17.2094 5.9375 -7.1250 0.0000 -0.0000 -8.2621 47.9813 -0.6116 0.0000 0.0000 0.0000 77.3890 -5.6077 28.0207 -32.5802 43.0049 -13.1348 0.0000 0.0000 4.1657 -25.8925 5.0332 -2.4386 7.1250 -0.0000 -0.0000 0.5847 -24.3884 0.2911
45.0007 16.9461 -6.7564 -478.2940 85.9755 2040.9000 0.0000 0.0000 0.0000 -14.0830 -3.7054 -9.4687 0.9823 6.3089 17.6833 -0.0849 -5.8318 -0.7672 0.0182 -0.8713 -2.3949 0.0000 0.0000 0.0000 21.0248 -2.2651 2.0587 -3.8271 -11.9267 35.4730 -0.1039 4.9320 -6.2451 -0.8255 -5.7968 16.1961 5.3077 2.9337 -1.7747 1.8425 3.8255 -0.2574 -0.9666 1.9404 0.9487 5.1973 8.3123 -0.7193 6.3308 10.8874 4.5958 1.2807 5.6854 1.4693 0.0000 0.0000 0.0000 -78.5222 0.3766 28.1429 21.7648 -32.7102 -6.4583 -0.0000 0.0000 -11.8703 19.4819 17.2145 5.9769 -7.1250 0.0000 -0.0000 -8.1552 48.0031 -0.6080 0.0000 0.0000 0.0000 77.4396 -5.7632 27.8909 -32.5583 42.9878 -13.1199 0.0000 0.0000 4.1928 -25.8901 5.0208 -2.4323 7.1250 -0.0000 -0.0000 0.5862 -24.4022 0.2917
